<svg xmlns="http://www.w3.org/2000/svg" viewBox="0 0 64 64" role="img" aria-label="JC monogram">
  <rect width="64" height="64" rx="13" fill="#111111"/>
  <path d="M26 15v23.5C26 46 21.8 50 15.5 50c-2.6 0-5-.7-7-2.1l3-5.3c1.3.8 2.6 1.2 3.9 1.2 2.8 0 4.2-1.8 4.2-5.4V15H26Z" fill="#f7f7f5"/>
  <path d="M56 20.1 51.6 25a11.4 11.4 0 0 0-8-3.2c-6.1 0-10.4 4.5-10.4 10.7 0 6.3 4.3 10.8 10.4 10.8 3.2 0 6-1.1 8.2-3.3l4.4 4.7A17.4 17.4 0 0 1 43.3 50c-10 0-17.4-7.3-17.4-17.5S33.3 15 43.3 15c5.1 0 9.3 1.7 12.7 5.1Z" fill="#f7f7f5"/>
</svg>
